<?xml version="1.0" encoding="UTF-8"?> <svg xmlns="http://www.w3.org/2000/svg" width="41" height="40" viewBox="0 0 41 40" fill="none"><g clip-path="url(#clip0)"><path d="M4.61427 14.6501C4.52777 14.9532 4.45088 15.2418 4.38361 15.5208C4.29712 15.872 4.22023 16.1894 4.14815 16.478C4.07607 16.757 4.02802 16.9832 3.99919 17.1467C3.94153 17.4401 3.74932 17.6229 3.44659 17.6806C3.18229 17.7336 2.90358 17.7095 2.61047 17.6181C2.32215 17.5267 2.06266 17.3632 1.83681 17.1371C1.59654 16.8965 1.47641 16.5983 1.47641 16.2472C1.47641 15.9585 1.54849 15.5064 1.69746 14.8617C1.84162 14.2316 2.04824 13.4812 2.31734 12.6393C2.58163 11.8024 2.90358 10.8788 3.26879 9.8926C3.58594 9.04596 3.93672 8.1994 4.32115 7.35754C4.44608 7.08335 4.70557 6.89574 5.0083 6.85726C5.68584 6.78029 6.2769 6.79953 6.77665 6.91498C7.07938 6.98714 7.23795 7.31425 7.11301 7.59325C6.79106 8.31484 6.49313 9.03156 6.22884 9.72908C6.01261 10.2967 5.81078 10.8547 5.61377 11.3983C5.59454 11.4512 5.6474 11.5041 5.70026 11.48C5.95975 11.3598 6.21442 11.2203 6.4643 11.0616C6.87275 10.797 7.24756 10.4843 7.57432 10.1284C7.90108 9.77236 8.16536 9.36828 8.36722 8.93532C8.56418 8.50244 8.66515 8.031 8.66515 7.53553C8.66515 6.90055 8.48733 6.42913 8.14132 6.14051C7.79056 5.84708 7.29562 5.69796 6.67093 5.69796C6.00299 5.69796 5.39753 5.8567 4.86414 6.16937C4.31634 6.48686 3.84062 6.88131 3.45619 7.3383C3.06697 7.79529 2.75942 8.28596 2.54319 8.79588C2.31734 9.30092 2.20682 9.73868 2.20682 10.1091C2.20682 10.3736 2.06747 10.5612 1.81759 10.643C1.59655 10.7152 1.35148 10.7056 1.1016 10.6094C0.861342 10.518 0.635492 10.3448 0.438475 10.085C0.236654 9.82524 0.135742 9.46932 0.135742 9.03636C0.135742 8.65636 0.279901 8.209 0.573023 7.66541C0.861342 7.13626 1.28901 6.62636 1.84162 6.14051C2.39423 5.65466 3.08619 5.23616 3.90789 4.88981C4.7344 4.54346 5.69065 4.36548 6.74781 4.36548C7.34848 4.36548 7.95394 4.43764 8.54014 4.57713C9.13127 4.71664 9.66941 4.9331 10.1355 5.21211C10.6065 5.49592 10.9956 5.8567 11.2888 6.27521C11.5868 6.70333 11.7357 7.20361 11.7357 7.76642C11.7357 8.37252 11.6012 8.94012 11.3417 9.45004C11.0821 9.95996 10.7266 10.4217 10.2797 10.8307C9.83759 11.2347 9.31866 11.5907 8.72762 11.8889C8.24229 12.1343 7.72329 12.3459 7.18989 12.5143C7.15626 12.5239 7.14184 12.5432 7.14665 12.5768C7.15626 12.8462 7.17548 13.106 7.20432 13.3609C7.23314 13.6544 7.2764 13.9381 7.32445 14.2076C7.3725 14.4721 7.43016 14.7319 7.49743 14.9772C7.55029 15.1648 7.60796 15.3524 7.66562 15.5256C7.70407 15.6362 7.74731 15.7468 7.78575 15.8479C7.86745 16.0548 7.96355 16.252 8.05964 16.4348C8.15579 16.6128 8.2615 16.7859 8.37196 16.9447C8.47768 17.0986 8.59304 17.2429 8.71315 17.3728C8.82851 17.4978 8.95344 17.6181 9.07837 17.724C9.2033 17.8249 9.33305 17.9164 9.46763 17.9981C9.59738 18.0751 9.73188 18.1424 9.87128 18.2001C10.0058 18.2531 10.1499 18.3012 10.2941 18.33C10.4383 18.3637 10.5824 18.3829 10.7314 18.3926C10.8804 18.4022 11.0342 18.3974 11.1879 18.3878C11.3465 18.3733 11.505 18.3492 11.6636 18.3108C11.827 18.2723 11.9904 18.2194 12.1586 18.1568C12.3268 18.0944 12.4997 18.0174 12.668 17.926C12.7304 17.8923 12.7976 17.8586 12.8601 17.8201C13.0715 17.6999 13.3407 17.7576 13.48 17.9548C13.6194 18.152 13.5905 18.4263 13.408 18.585C13.3166 18.662 13.2301 18.7389 13.1388 18.8159C12.9226 18.9939 12.7064 19.1574 12.495 19.3065C12.2931 19.446 12.0865 19.576 11.8846 19.6914C11.7837 19.7491 11.678 19.8068 11.5675 19.8597C11.3609 19.9656 11.1494 20.057 10.9428 20.134C10.7362 20.2109 10.5295 20.2734 10.3277 20.3264C10.126 20.3744 9.9241 20.4129 9.72231 20.4322C9.58291 20.4466 9.43877 20.4562 9.29945 20.4562C9.24173 20.4562 9.18891 20.4562 9.13127 20.4514C8.93905 20.4418 8.74683 20.4225 8.56418 20.384C8.47294 20.3648 8.38161 20.3456 8.29029 20.3168C8.20378 20.2927 8.11254 20.2638 8.02602 20.2301C7.85302 20.1676 7.68484 20.0906 7.52146 19.9992C7.36289 19.9127 7.20432 19.8068 7.05535 19.6962C6.93522 19.6048 6.81509 19.5038 6.70457 19.398C6.57001 19.268 6.43547 19.1286 6.31053 18.9746C6.18559 18.8255 6.07026 18.662 5.95975 18.4936C5.84923 18.3252 5.74351 18.1424 5.6474 17.9596C5.55129 17.772 5.46 17.5748 5.3783 17.3728C5.29662 17.1708 5.21973 16.9591 5.15246 16.7378C5.08519 16.5213 5.02271 16.2904 4.96986 16.0548C4.917 15.819 4.86895 15.5737 4.8305 15.3236C4.79687 15.1023 4.76803 14.8762 4.74401 14.6452C4.7344 14.5924 4.63349 14.5828 4.61427 14.6501Z" fill="#FD6250"></path><path d="M40.7169 5.79884C40.7169 6.79459 39.9144 7.59793 38.9197 7.59793C37.925 7.59793 37.1226 6.79459 37.1226 5.79884C37.1226 4.80309 37.925 3.99976 38.9197 3.99976C39.9096 3.99976 40.7169 4.80309 40.7169 5.79884Z" fill="#FD6250"></path><path d="M40.3129 13.0528C40.2264 12.9181 40.0582 12.8267 39.8852 12.8267C39.7218 12.8267 39.5729 12.9037 39.4816 13.0384C39.3758 13.1923 39.2413 13.3751 39.0923 13.582C38.9241 13.8081 38.7415 14.0293 38.5542 14.2313C38.3668 14.4334 38.1841 14.6065 38.0111 14.7509C37.8334 14.9 37.718 14.9289 37.6508 14.9289C37.6027 14.9289 37.521 14.9289 37.5018 14.7028C37.4825 14.4671 37.5162 14.1592 37.6075 13.784C37.6988 13.404 37.8334 12.9807 38.0015 12.5285C38.1745 12.0667 38.3475 11.6241 38.5157 11.2201C38.6935 10.7968 38.8424 10.4456 38.977 10.1425C39.1116 9.8443 39.1933 9.6471 39.2269 9.56046C39.3326 9.31518 39.2942 9.06982 39.1116 8.85814C38.9433 8.66094 38.7223 8.52622 38.4484 8.44926C38.1794 8.3771 37.891 8.3723 37.5882 8.43486C37.2615 8.50222 37.0068 8.69462 36.8243 8.99286C36.6608 9.25742 36.4542 9.6711 36.1995 10.2291C35.9449 10.7871 35.6998 11.4029 35.4692 12.0619C35.3298 12.4611 35.2 12.8701 35.0847 13.2837C34.8925 13.9668 34.4937 14.5729 33.9459 15.0251C33.7489 15.1838 33.5423 15.3377 33.326 15.4773C33.2299 15.5398 33.1338 15.5975 33.0376 15.6505C33.0089 15.6649 32.9752 15.6312 32.9944 15.6023C33.1627 15.3858 33.3212 15.1453 33.4845 14.8952C33.8113 14.3757 34.1093 13.7503 34.3735 13.0432C34.6522 12.2928 34.8252 11.6097 34.8877 11.0084C34.955 10.4023 34.931 9.87318 34.8204 9.43542C34.7051 8.98326 34.5033 8.62726 34.2198 8.3819C33.9266 8.12214 33.5615 7.99229 33.1434 7.99229C32.6485 7.99229 32.1872 8.12214 31.7835 8.3819C31.5096 8.5599 31.2501 8.75718 31.0195 8.97358C31.0003 8.99286 30.9858 8.98806 30.9714 8.96878C30.9185 8.88702 30.8513 8.81006 30.7648 8.7379C30.5678 8.57438 30.3323 8.46854 30.0632 8.41558C29.7941 8.3627 29.5202 8.3819 29.2511 8.46854C28.9628 8.5647 28.7514 8.75718 28.6168 9.04574C28.3573 9.60374 28.0834 10.258 27.8048 10.9844C27.526 11.7107 27.2521 12.4708 26.9926 13.2405C26.9638 13.327 26.935 13.4136 26.9061 13.4953C26.6899 14.1544 26.2767 14.7317 25.7289 15.1501C25.5846 15.2608 25.4357 15.3666 25.282 15.4677C25.1858 15.5301 25.0898 15.5879 24.9936 15.6408C24.9648 15.6553 24.9311 15.6216 24.9504 15.5927C25.1185 15.3762 25.2771 15.1357 25.4405 14.8856C25.7673 14.3661 26.0652 13.7455 26.3295 13.0336C26.6082 12.2832 26.7812 11.6001 26.8437 10.9988C26.911 10.3927 26.8869 9.8635 26.7764 9.42582C26.6611 8.97358 26.4592 8.61766 26.1758 8.3723C25.8826 8.11254 25.5174 7.98267 25.0993 7.98267C24.5996 7.98267 24.1431 8.11254 23.7395 8.3723C23.4656 8.5503 23.2061 8.7475 22.9754 8.96398C22.9562 8.98326 22.9418 8.97838 22.9274 8.95918C22.8745 8.87742 22.8073 8.80046 22.7208 8.7283C22.5237 8.5647 22.2882 8.45886 22.0192 8.40598C21.7501 8.3531 21.4762 8.3723 21.2071 8.45886C20.9188 8.5551 20.7073 8.7475 20.5728 9.03614C20.3133 9.59414 20.0394 10.2484 19.7607 10.9747C19.4964 11.6578 19.2417 12.3649 19.0014 13.0817C18.8188 13.6205 18.5449 14.0582 18.1365 14.4574C18.0308 14.5585 17.9299 14.6547 17.829 14.7365C17.6511 14.8856 17.5359 14.9145 17.4686 14.9145C17.4205 14.9145 17.3388 14.9145 17.3196 14.6884C17.3004 14.4526 17.334 14.1448 17.4253 13.7744C17.5167 13.3944 17.6511 12.971 17.8193 12.5189C17.9923 12.0619 18.1653 11.6193 18.3335 11.2105C18.5065 10.7968 18.6603 10.4312 18.7948 10.1329C18.9294 9.82502 19.0159 9.63742 19.0447 9.55086C19.1504 9.3055 19.112 9.06022 18.9294 8.84854C18.7612 8.65134 18.5353 8.51662 18.2518 8.43966C17.9779 8.3675 17.6848 8.3627 17.3916 8.43006C17.0745 8.50222 16.8198 8.68982 16.6372 8.98806C16.5988 9.04574 16.5604 9.1131 16.522 9.18526C16.5075 9.20934 16.4691 9.20454 16.4642 9.17566C16.4306 9.01206 16.373 8.85814 16.2961 8.71382C16.1808 8.49734 16.0126 8.32422 15.7915 8.1895C15.5657 8.05486 15.2822 7.98747 14.9458 7.98747C14.1529 7.98747 13.3457 8.3531 12.5479 9.07942C11.7695 9.79134 11.1208 10.9266 10.6258 12.4515C10.3952 13.1875 10.2559 13.8706 10.2222 14.4767C10.1838 15.0925 10.2366 15.6216 10.3712 16.0497C10.5105 16.4922 10.7316 16.8434 11.0295 17.0887C11.337 17.3437 11.707 17.4736 12.1251 17.4736C12.4374 17.4736 12.7306 17.4206 13.0045 17.3148C13.2687 17.2138 13.5186 17.0791 13.7348 16.9204C13.903 16.8001 14.0616 16.6606 14.2058 16.5115C14.3067 16.4057 14.4893 16.4489 14.5278 16.5885C14.5757 16.7472 14.6383 16.8915 14.7247 17.0117C14.9314 17.3148 15.2629 17.4688 15.7002 17.4688C16.1903 17.4688 16.6805 17.286 17.1658 16.9252C17.3916 16.7568 17.6127 16.574 17.8242 16.3768C17.8722 16.3335 17.9491 16.3816 17.9299 16.4441C17.8049 16.8578 17.6944 17.2427 17.5935 17.6034C17.4253 18.2096 17.2859 18.7339 17.1802 19.1572C17.0409 19.7249 17.0265 19.8788 17.0265 19.9509C17.0265 20.3021 17.137 20.5955 17.3484 20.8361C17.5551 21.0669 17.7953 21.2305 18.0596 21.3219C18.2326 21.3844 18.4056 21.4133 18.569 21.4133C18.6603 21.4133 18.7467 21.4037 18.8332 21.3844C19.0255 21.3411 19.2657 21.2161 19.3379 20.8553V20.8505C19.3666 20.6581 19.4195 20.4031 19.4964 20.0856C19.5781 19.7537 19.6742 19.3785 19.7847 18.9696C19.8952 18.5607 20.0201 18.1037 20.1739 17.5794C20.2412 17.3341 20.3181 17.0791 20.395 16.8145C20.4094 16.7617 20.4863 16.752 20.5103 16.8001C20.544 16.8626 20.5824 16.9204 20.6257 16.9781C20.8707 17.3052 21.2551 17.4688 21.7789 17.4688C21.8846 17.4736 21.9903 17.4736 22.0912 17.4736C22.8553 17.4736 23.5761 17.3437 24.2296 17.0839C24.8543 16.8338 25.4261 16.5355 25.9355 16.1844C25.9836 16.1507 26.0508 16.1988 26.0315 16.2565C25.8874 16.7376 25.7528 17.1897 25.6375 17.6034C25.4645 18.2144 25.33 18.7387 25.2242 19.1572C25.0849 19.7297 25.0705 19.8836 25.0705 19.9509C25.0705 20.2973 25.1811 20.5955 25.3925 20.8361C25.5991 21.0669 25.8393 21.2305 26.1037 21.3219C26.2767 21.3844 26.4497 21.4133 26.613 21.4133C26.7044 21.4133 26.7908 21.4037 26.8773 21.3844C27.0695 21.3411 27.3098 21.2161 27.3819 20.8553V20.8505C27.4107 20.6581 27.4636 20.4031 27.5404 20.0856C27.6221 19.7537 27.7183 19.3785 27.8287 18.9696C27.9393 18.5607 28.069 18.1037 28.218 17.5794C28.2853 17.3341 28.3621 17.0791 28.4391 16.8145C28.4534 16.7617 28.5303 16.752 28.5543 16.8001C28.588 16.8626 28.6264 16.9204 28.6697 16.9781C28.9099 17.3052 29.2992 17.4688 29.8229 17.4688C29.9286 17.4736 30.0344 17.4736 30.1353 17.4736C30.8993 17.4736 31.6201 17.3437 32.2737 17.0839C33.004 16.7953 33.6672 16.4297 34.239 15.9968C34.3351 15.9246 34.4312 15.8477 34.5225 15.7755C34.5657 15.7418 34.6282 15.7707 34.6282 15.8284C34.6282 15.8525 34.6282 15.8765 34.6282 15.9005C34.6282 16.3576 34.7244 16.7328 34.9117 17.0117C35.1184 17.3148 35.4499 17.4688 35.8872 17.4688C36.3726 17.4688 36.8723 17.286 37.3624 16.9252C37.8285 16.5837 38.2706 16.1796 38.6743 15.7226C39.0731 15.2704 39.4191 14.823 39.7122 14.3901C40.0053 13.9524 40.2072 13.6493 40.3177 13.4713C40.3946 13.3462 40.3994 13.1875 40.3129 13.0528ZM15.4455 10.7101C15.4119 11.0325 15.3446 11.3981 15.2437 11.8021C15.1428 12.2013 15.0083 12.6247 14.8401 13.0577C14.6719 13.4905 14.4941 13.8946 14.3067 14.2602C14.1241 14.621 13.9415 14.9289 13.7589 15.1742C13.5811 15.4147 13.4177 15.5927 13.2639 15.7033C13.1534 15.7851 13.091 15.7947 13.0717 15.7947C13.0621 15.7947 13.0525 15.7947 13.0429 15.7899C13.0237 15.7803 12.9516 15.7322 12.918 15.5157C12.8843 15.3137 12.8796 15.0539 12.9083 14.7461C12.9372 14.4286 12.9997 14.0678 13.1005 13.6685C13.1967 13.2693 13.336 12.846 13.5042 12.413C13.6772 11.9753 13.855 11.5712 14.0376 11.2105C14.2202 10.8497 14.4028 10.5418 14.5854 10.2869C14.7632 10.0415 14.9266 9.8635 15.0755 9.74806C15.1861 9.6663 15.2485 9.6567 15.2726 9.6567C15.2822 9.6567 15.2918 9.6567 15.2965 9.6615C15.3158 9.6711 15.3927 9.71918 15.4359 9.94046C15.4792 10.1377 15.484 10.3975 15.4455 10.7101ZM24.1527 10.7294C24.0951 11.0469 24.0086 11.4125 23.8885 11.8117C23.7683 12.2158 23.6146 12.6391 23.4319 13.0673C23.2349 13.5002 23.0283 13.9091 22.8216 14.2746C22.6198 14.6354 22.4132 14.9481 22.221 15.1982C22.0287 15.4436 21.8558 15.6264 21.6972 15.737C21.5771 15.8236 21.5146 15.8333 21.4906 15.8333C21.481 15.8333 21.4714 15.8333 21.4617 15.8284C21.4425 15.8188 21.3752 15.7755 21.3465 15.559C21.3176 15.3618 21.332 15.1021 21.3897 14.7845C21.4473 14.4622 21.5338 14.0919 21.654 13.6926C21.7741 13.2933 21.9278 12.8701 22.1105 12.4323C22.2931 11.9993 22.4949 11.5953 22.7063 11.2345C22.9177 10.8689 23.1244 10.561 23.3166 10.3205C23.5088 10.08 23.6818 9.90198 23.8404 9.78654C23.9605 9.69998 24.0229 9.69038 24.047 9.69038C24.0566 9.69038 24.0662 9.69038 24.0758 9.69518C24.0951 9.70478 24.1624 9.74806 24.1911 9.96454C24.22 10.1666 24.2056 10.4215 24.1527 10.7294ZM32.2016 10.7294C32.1439 11.0469 32.0574 11.4125 31.9372 11.8117C31.8171 12.2158 31.6633 12.6391 31.4808 13.0673C31.2837 13.5002 31.0771 13.9091 30.8705 14.2746C30.6686 14.6354 30.462 14.9481 30.2698 15.1982C30.0776 15.4436 29.9046 15.6264 29.7461 15.737C29.626 15.8236 29.5635 15.8333 29.5395 15.8333C29.5298 15.8333 29.5202 15.8333 29.5106 15.8284C29.4914 15.8188 29.4241 15.7755 29.3952 15.559C29.3665 15.3618 29.3808 15.1021 29.4385 14.7845C29.4962 14.4622 29.5827 14.0919 29.7028 13.6926C29.8229 13.2933 29.9767 12.8701 30.1593 12.4323C30.3419 11.9993 30.5437 11.5953 30.7552 11.2345C30.9666 10.8689 31.1732 10.561 31.3654 10.3205C31.5529 10.08 31.7306 9.90198 31.8892 9.79134C32.0093 9.70478 32.0718 9.69518 32.0958 9.69518C32.1054 9.69518 32.1151 9.69518 32.1247 9.69998C32.1439 9.70958 32.2111 9.75286 32.24 9.96934C32.2689 10.1666 32.2544 10.4215 32.2016 10.7294Z" fill="#FD6250"></path><path d="M40.3223 27.2243C38.1743 29.11 36.2666 29.2254 33.9745 27.537C32.9221 26.7625 31.9803 25.839 30.9232 25.0693C30.1062 24.4728 29.2413 23.8811 28.309 23.5107C26.6945 22.8709 25.0607 23.0874 23.5854 23.987C22.586 24.5978 21.673 25.353 20.7456 26.0746C20.6158 26.1757 20.5197 26.2286 20.4188 26.2238C20.3179 26.2286 20.2218 26.1708 20.092 26.0746C19.1646 25.353 18.2516 24.593 17.2521 23.987C15.7817 23.0922 14.1431 22.8758 12.5285 23.5107C11.5963 23.8811 10.7314 24.4728 9.91443 25.0693C8.85728 25.839 7.91545 26.7625 6.86309 27.537C4.57578 29.2254 2.66809 29.1052 0.515319 27.2243C0.337524 27.0704 0.159729 26.9116 -0.0180664 26.7577C0.318303 28.5327 1.00546 30.1202 2.02418 31.5633C3.32641 33.4057 5.02748 34.7237 7.17063 35.4501C12.173 37.1434 18.4919 34.7814 20.4284 30.3318C22.3601 34.7814 28.6791 37.1434 33.6813 35.4501C35.8197 34.7237 37.5256 33.4057 38.8278 31.5633C39.8465 30.1202 40.5385 28.5327 40.8557 26.7577C40.6779 26.9116 40.5 27.0704 40.3223 27.2243Z" fill="#FD6250"></path></g><defs><clipPath id="clip0"><rect width="41" height="40" fill="white"></rect></clipPath></defs></svg> 